<svg width="48" height="48" viewBox="0 0 48 48" fill="none" xmlns="http://www.w3.org/2000/svg">
<g clip-path="url(#clip0_122_2)">
<rect width="48" height="48" fill="#FFC564"/>
<path d="M21.5057 41H10.6754V7.54545H21.8487C25.1267 7.54545 27.9418 8.2152 30.294 9.55469C32.6463 10.8833 34.4486 12.7945 35.701 15.2884C36.9643 17.7713 37.5959 20.7498 37.5959 24.2237C37.5959 27.7086 36.9588 30.7034 35.6847 33.2081C34.4214 35.7128 32.5919 37.6404 30.196 38.9908C27.8002 40.3303 24.9034 41 21.5057 41ZM15.723 36.5895H21.228C23.7763 36.5895 25.8944 36.1103 27.5824 35.152C29.2704 34.1828 30.5336 32.7834 31.3722 30.9538C32.2107 29.1134 32.63 26.87 32.63 24.2237C32.63 21.5992 32.2107 19.3722 31.3722 17.5426C30.5445 15.7131 29.3085 14.3246 27.6641 13.3771C26.0196 12.4297 23.9777 11.956 21.5384 11.956H15.723V36.5895Z" fill="#1A1A1A"/>
</g>
<defs>
<clipPath id="clip0_122_2">
<rect width="48" height="48" fill="white"/>
</clipPath>
</defs>
</svg>
